# xmcd
#
# Track frame offsets:
#	150
#	19975
#	41215
#	63799
#	83338
#	107441
#	132659
#	155320
#	175016
#	194272
#	219360
#
# Disc length: 3037 seconds
# Revision: 0
# Processed by: cddbd v1.5.2PL0 Copyright (c) Steve Scherf et al.
# Submitted via: dBpowerAMP V12.0
#
DISCID=880bdb0b
DTITLE=Raunchy - Death Pop Romance
DYEAR=2006
DGENRE=Metal
TTITLE0=This Legend Forever
TTITLE1=Abandon Your Hope
TTITLE2=Phantoms
TTITLE3=The Curse of Bravery
TTITLE4=Remembrance
TTITLE5=Live the Myth
TTITLE6=City of Hurt
TTITLE7=Persistence
TTITLE8=The Velvet Remains
TTITLE9=Farewell to Devotion
TTITLE10=Last Christmas (Bonus)
EXTD=
EXTT0=
EXTT1=
EXTT2=
EXTT3=
EXTT4=
EXTT5=
EXTT6=
EXTT7=
EXTT8=
EXTT9=
EXTT10=
PLAYORDER=
